<svg width="48" height="48" viewBox="0 0 48 48" fill="none" xmlns="http://www.w3.org/2000/svg">
<mask id="mask0_2558_718" style="mask-type:luminance" maskUnits="userSpaceOnUse" x="0" y="0" width="48" height="48">
<path d="M0 0H48V48H0V0Z" fill="white"/>
</mask>
<g mask="url(#mask0_2558_718)">
<path d="M6.20806 47.9987L12.4148 37.8633H6.08398L6.20806 47.9987Z" fill="#002DE3"/>
<path d="M39.443 39.012H8.55722C3.83122 39.012 0 31.9296 0 23.1929V15.8191C0 7.08239 3.83122 0 8.55722 0H39.443C44.1688 0 47.9997 7.08239 47.9997 15.8191V23.1929C47.9997 31.9296 44.1688 39.012 39.443 39.012Z" fill="#002DE3"/>
<path d="M17.5867 22.949C16.5587 22.949 15.7246 21.4079 15.7246 19.5068C15.7246 17.6057 16.5587 16.0645 17.5867 16.0645C18.6155 16.0645 19.4487 17.6057 19.4487 19.5068C19.4487 21.4079 18.6155 22.949 17.5867 22.949Z" fill="white"/>
<path d="M24.0007 22.949C22.9728 22.949 22.1387 21.4079 22.1387 19.5068C22.1387 17.6057 22.9728 16.0645 24.0007 16.0645C25.0295 16.0645 25.8627 17.6057 25.8627 19.5068C25.8627 21.4079 25.0295 22.949 24.0007 22.949Z" fill="white"/>
<path d="M30.4128 22.949C29.3849 22.949 28.5508 21.4079 28.5508 19.5068C28.5508 17.6057 29.3849 16.0645 30.4128 16.0645C31.4416 16.0645 32.2749 17.6057 32.2749 19.5068C32.2749 21.4079 31.4416 22.949 30.4128 22.949Z" fill="white"/>
</g>
</svg>
